<svg xmlns="http://www.w3.org/2000/svg" viewBox="0 0 920 380" width="100%" height="380" style="background:#0b0f17; border-radius:12px; font-family: ui-monospace, SFMono-Regular, Menlo, Monaco, Consolas, 'Liberation Mono', monospace;">
  <!-- Terminal Frame -->
  <rect width="920" height="380" fill="#0d1117" rx="12" stroke="#30363d" stroke-width="1.2" />

  <!-- Terminal Title Bar -->
  <path d="M0,12 Q0,0 12,0 L908,0 Q920,0 920,12 L920,38 L0,38 Z" fill="#161b22" />
  <line x1="0" y1="38" x2="920" y2="38" stroke="#30363d" stroke-width="1" />

  <!-- Traffic Lights -->
  <circle cx="20" cy="19" r="6" fill="#ff5f56" />
  <circle cx="38" cy="19" r="6" fill="#ffbd2e" />
  <circle cx="56" cy="19" r="6" fill="#27c93f" />

  <!-- Window Title -->
  <text x="460" y="24" fill="#8b949e" font-size="12" font-weight="600" text-anchor="middle">raven-telecom-engine — live traffic stream &amp; parser execution</text>

  <!-- Line 1: Command -->
  <g transform="translate(26, 72)">
    <text x="0" y="0" fill="#79c0ff" font-size="13" font-weight="700">obs@server:~/ivasms-bot$</text>
    <text x="195" y="0" fill="#f0f6fc" font-size="13">python3 main.py --stream --production</text>
  </g>

  <!-- Line 2: DB & Session -->
  <g transform="translate(26, 104)">
    <text x="0" y="0" fill="#8b949e" font-size="12.5">[2026-09-07 19:29:40]</text>
    <text x="175" y="0" fill="#3fb950" font-size="12.5">[System]</text>
    <text x="245" y="0" fill="#c9d1d9" font-size="12.5">SQLite session pool initialized. Concurrent write lock: OK. (0.002s)</text>
  </g>

  <!-- Line 3: Network auth -->
  <g transform="translate(26, 136)">
    <text x="0" y="0" fill="#8b949e" font-size="12.5">[2026-09-07 19:29:41]</text>
    <text x="175" y="0" fill="#58a6ff" font-size="12.5">[Network]</text>
    <text x="250" y="0" fill="#c9d1d9" font-size="12.5">iVasms session authenticated. Rotating fingerprint pool active.</text>
  </g>

  <!-- Line 4: Stream Ingestion -->
  <g transform="translate(26, 168)">
    <text x="0" y="0" fill="#8b949e" font-size="12.5">[2026-09-07 19:29:42]</text>
    <text x="175" y="0" fill="#d29922" font-size="12.5">[Stream]</text>
    <text x="245" y="0" fill="#c9d1d9" font-size="12.5">Polling live telecom traffic stream across 140+ countries [POLL OK]</text>
  </g>

  <!-- Line 5: Incoming Message -->
  <g transform="translate(26, 204)">
    <text x="0" y="0" fill="#8b949e" font-size="12.5">[2026-09-07 19:29:43]</text>
    <text x="175" y="0" fill="#bc8cff" font-size="12.5">[Inbound]</text>
    <text x="255" y="0" fill="#e6edf3" font-size="12.5">SMS #9024: +201001234567 | "Your WhatsApp code is 482-910."</text>
  </g>

  <!-- Line 6: Extraction Result -->
  <g transform="translate(26, 240)">
    <text x="0" y="0" fill="#8b949e" font-size="12.5">[2026-09-07 19:29:43]</text>
    <text x="175" y="0" fill="#3fb950" font-size="12.5">[Parser]</text>
    <text x="245" y="0" fill="#7ee787" font-size="12.5" font-weight="700">SERVICE: WhatsApp</text>
    <text x="400" y="0" fill="#f0f6fc" font-size="12.5">| OTP: [</text>
    <text x="455" y="0" fill="#ffa657" font-size="13" font-weight="700">482910</text>
    <text x="510" y="0" fill="#f0f6fc" font-size="12.5">] | EG (+20) | Latency:</text>
    <text x="685" y="0" fill="#58a6ff" font-size="12.5" font-weight="700">4.96 µs</text>
  </g>

  <!-- Line 7: Telegram Dispatch -->
  <g transform="translate(26, 276)">
    <text x="0" y="0" fill="#8b949e" font-size="12.5">[2026-09-07 19:29:43]</text>
    <text x="175" y="0" fill="#388bfd" font-size="12.5">[Dispatch]</text>
    <text x="255" y="0" fill="#c9d1d9" font-size="12.5">Broadcasted to group @Raven_xx24 &amp; user subscriber pool [HTTP 200 OK]</text>
  </g>

  <!-- Line 8: Metrics summary -->
  <g transform="translate(26, 312)">
    <rect x="0" y="-16" width="868" height="28" fill="#161b22" rx="4" stroke="#238636" stroke-width="1" />
    <text x="12" y="3" fill="#3fb950" font-size="12" font-weight="700">TELEMETRY:</text>
    <text x="110" y="3" fill="#c9d1d9" font-size="12">Throughput: 181,450 ops/sec | p95 Latency: 7.70 µs | Queue: 0 dropped | CPU: 1.8%</text>
  </g>

  <!-- Terminal Prompt -->
  <g transform="translate(26, 348)">
    <text x="0" y="0" fill="#79c0ff" font-size="13" font-weight="700">obs@server:~/ivasms-bot$</text>
    <rect x="195" y="-12" width="8" height="15" fill="#f0f6fc" />
  </g>
</svg>
